<svg xmlns="http://www.w3.org/2000/svg" version="1.1" xmlns:xlink="http://www.w3.org/1999/xlink" xmlns:svgjs="http://svgjs.com/svgjs" id="Pattern1318SvgRootPreview" width="100%" height="100%"><defs><pattern x="0" y="0" width="1" height="1" patternUnits="userSpaceOnUse" id="Pattern1318Layer1"><g id="PatternRootContent1"><g id="Pattern1318Layer1background"><rect width="1" height="1" id="Pattern1318Background1" class="color_1 fill_color_1" fill="#000000"></rect></g></g></pattern><pattern x="0" y="0" width="54" height="96" patternUnits="userSpaceOnUse" id="Pattern1318Layer2" patternTransform="matrix(0.6,0,0,0.6,0,0)"><g id="PatternRootContent2"><g id="Pattern1318Layer2Element2"><use xlink:href="#Pattern1318Element2" x="20.798141479492188" y="-52.93118858337402" transform="translate(54, -24) scale(1) translate(-54, 24) rotate(90, 54, -24)"></use><use xlink:href="#Pattern1318Element2" x="-33.20185852050781" y="-52.93118858337402" transform="translate(0, -24) scale(1) translate(0, 24) rotate(90, 0, -24)"></use><use xlink:href="#Pattern1318Element2" x="-6.2018585205078125" y="-4.931188583374023" transform="translate(27, 24) scale(1) translate(-27, -24) rotate(90, 27, 24)"></use><use xlink:href="#Pattern1318Element2" x="-60.20185852050781" y="-4.931188583374023" transform="translate(-27, 24) scale(1) translate(27, -24) rotate(90, -27, 24)"></use><use xlink:href="#Pattern1318Element2" x="47.79814147949219" y="-4.931188583374023" transform="translate(81, 24) scale(1) translate(-81, -24) rotate(90, 81, 24)"></use><use xlink:href="#Pattern1318Element2" x="20.798141479492188" y="43.06881141662598" transform="translate(54, 72) scale(1) translate(-54, -72) rotate(90, 54, 72)"></use><use xlink:href="#Pattern1318Element2" x="-33.20185852050781" y="43.06881141662598" transform="translate(0, 72) scale(1) translate(0, -72) rotate(90, 0, 72)"></use><use xlink:href="#Pattern1318Element2" x="-6.2018585205078125" y="91.06881141662598" transform="translate(27, 120) scale(1) translate(-27, -120) rotate(90, 27, 120)"></use><use xlink:href="#Pattern1318Element2" x="-6.2018585205078125" y="91.06881141662598" transform="translate(27, 120) scale(1) translate(-27, -120) rotate(90, 27, 120)"></use></g></g></pattern><symbol id="Pattern1318Element2"><g class="color_3 fill_color_3" fill="#002132"><path d="M24.432,24.819997787475586L33.612,15.639997482299805l9.18,9.18L45.612,21.999998092651367L33.612,9.999998092651367l-12,12ZM45.612,-0.0000018704115518630715l0,4l-24,0l0,-4Z"></path><path d="M43.294,27.109956741333008L46.654,39.65007019042969l-12.54,3.36L35.146,46.86237716674805L51.538,42.470069885253906l-4.392,-16.392ZM54.199,57.86237716674805l-3.464,-2l12,-20.785l3.464,2Z"></path><path d="M31.88,42.30004119873047L19.34,38.9399299621582l3.36,-12.54L18.848,25.36762237548828L14.455,41.75992965698242l16.393,4.392ZM-0.205,36.36762237548828l3.464,-2l12,20.785l-3.464,2Z"></path></g></symbol></defs><rect width="100%" height="100%" id="Pattern1318RctLayer1" fill="url(#Pattern1318Layer1)"></rect><rect width="100%" height="100%" id="Pattern1318RctLayer2" fill="url(#Pattern1318Layer2)"></rect></svg>